<svg version="1" xmlns="http://www.w3.org/2000/svg" width="256" height="256" viewBox="0 0 192.000000 192.000000"><path d="M86.6 9c-13.8 1.7-24.4 5.3-35.5 11.9-19.4 11.6-34.4 31.6-40.3 53.6-2.8 10.5-3 31.6-.5 41.8 7.8 31.3 30.3 54.9 61.4 64.4 7.9 2.4 10.3 2.7 24.3 2.7s16.4-.3 24.5-2.8c54-16.4 79.1-75.9 52.9-125.6-10.2-19.4-27.5-34.3-48.1-41.5-12-4.2-27-5.9-38.7-4.5zm-8.8 51.7c.6 1.6 2.7 7.1 4.7 12.3 2 5.2 4.7 12.2 6 15.5 1.2 3.3 3.9 10.5 5.9 16 3.7 9.9 7.2 18.6 8.6 21.5.4.8 1.8 1.7 3.1 2 1.5.4 2.4 1.3 2.4 2.5 0 1.9-.9 2-16.3 2.3l-16.3.3.3-2.3c.2-1.7 1.1-2.4 3.3-2.6 1.7-.2 3.3-.7 3.8-1.1.4-.4-.8-4.7-2.6-9.7l-3.3-8.9-14.2-.3c-7.8-.1-14.2-.1-14.2.1 0 .3-1.4 4.4-3.1 9.2-1.7 4.8-2.7 9.1-2.3 9.5.5.5 2.5 1 4.4 1.2 2.8.2 3.6.8 3.8 2.6.3 2.3.3 2.3-11 2-10.5-.3-11.3-.4-11.3-2.3 0-1.3.8-2.1 2.3-2.3 3-.5 2.6.5 16.1-35.7 2.7-7.2 5.6-14.6 6.4-16.5.8-1.9 2.7-6.8 4.1-10.8l2.8-7.2H69c7.5 0 7.8.1 8.8 2.7zm85.2.3c0 1.9-1.1 2.4-6.5 3.2-1.9.3-2 1.3-2.5 27.4l-.5 27.1-3 4.8c-4.6 7.5-10.3 10-22.5 10-13.3 0-13 .3-13-10 0-8.4.1-8.6 2.2-8.3 1.9.2 2.4 1.1 3 5.2.8 5.9 1.4 6.6 6.6 7.3 3.6.5 4.5.2 7.2-2.5l3-3.1-.2-28.8-.3-28.8-2.5-.3c-5.6-.6-7-1.3-7-3.2 0-1.9.7-2 18-2s18 .1 18 2z"/><path d="M57.7 85.2c-3.2 8.4-5.7 15.6-5.7 16 0 .5 5.2.8 11.5.8s11.5-.2 11.5-.5c0-.2-.4-1.4-1-2.7-.5-1.3-3-8.1-5.5-15.3-2.6-7.1-4.8-13.1-4.9-13.2-.2-.2-2.8 6.6-5.9 14.9z"/></svg>